<?xml version="1.0" encoding="UTF-8"?>
<svg width="267px" height="61px" viewBox="0 0 267 61" version="1.1" xmlns="http://www.w3.org/2000/svg" xmlns:xlink="http://www.w3.org/1999/xlink">
    <!-- Generator: Sketch 41.2 (35397) - http://www.bohemiancoding.com/sketch -->
    <title>logo</title>
    <desc>Created with Sketch.</desc>
    <defs></defs>
    <g id="narubalie" stroke="none" stroke-width="1" fill="none" fill-rule="evenodd">
        <g id="Desktop-HD-Copy-10" transform="translate(-467.000000, -130.000000)" fill="#000000">
            <g id="logo" transform="translate(467.000000, 130.000000)">
                <path d="M71.7934046,35.5 L78.2748672,53.6318681 L84.4716696,35.5 L91.248497,35.5 L91.248497,60.5 L86.242977,60.5 L86.242977,53.778659 L86.6032736,41.8701923 L80.0425388,60.5 L76.4725354,60.5 L69.6791307,41.8873626 L69.978487,53.6662088 L69.978487,60.5 L65,60.5 L65,35.5 L71.7934046,35.5 Z M20,60.5 L15,60.5 L15,48 L5.0007767,48 L5.0007767,60.5 L0,60.5 L0,35.5 L5.0007767,35.5 L5.0007767,44 L15,44 L15,35.5 L20,35.5 L20,60.5 Z M38.25,48.257385 L28.75,48.257385 L28.75,56.25 L40,56.25 L40,60.5 L23.75,60.5 L23.75,35.5 L40,35.5 L40,39.7500272 L28.75,39.7500272 L28.75,44.007385 L38.25,44.007385 L38.25,48.257385 Z M95,60.5 L95,43.9427168 C95,41.1759595 95.8932571,39.0227836 97.585907,37.4136653 C99.2785569,35.8045471 101.591056,35 104.523472,35 C107.410601,35 109.703286,35.7813946 111.401597,37.3442073 C113.099908,38.90702 113.716034,41.2106887 113.75,43.9427168 L113.75,60.5 L108.75,60.5 L108.75,43.9427168 C108.75,42.287293 108.517318,41.0804724 107.741756,40.3222188 C106.966194,39.5639653 105.893443,39.1848442 104.523472,39.1848442 C101.658988,39.1848442 100.045288,40.863397 100,43.9427168 L100,60.5 L95,60.5 Z M103.75,51.25 L108.75,51.25 L108.75,55.5 L103.75,55.5 L103.75,51.25 Z M52.75,51.5 L48.75,51.5 L48.75,60.5 L43.75,60.5 L43.75,35.5 L52.9378162,35.5 C55.858911,35.5 57.7983126,36.2023647 59.3834028,37.5336496 C60.968493,38.8649345 61.8986372,40.767493 61.8986372,43.198535 C61.8986372,44.9234171 61.5754614,46.2795617 60.8451877,47.4314125 C60.114914,48.5832634 59.1422885,49.5247233 57.6590969,50.2077304 L63,60.5 L57.5,60.5 L52.75,51.5 Z M48.751219,47.2490836 L52.9378162,47.2490836 C54.2172104,47.2490836 55.2248599,46.9750428 55.9268285,46.3094004 C56.628797,45.643758 57,43.5868408 57,43.5868408 C57,43.5868408 56.8535139,41.6275759 55.986269,40.7440786 C55.1190242,39.8605813 53,39.75 53,39.75 L48.751219,39.75 L48.751219,47.2490836 Z M48.75,47.25 L51.25,47.25 L51.25,51.5 L48.75,51.5 L48.75,47.25 Z M137.5,60.5 L132.5,60.5 L122.5,43.8867883 L122.5,60.5 L117.5,60.5 L117.5,35.5 L122.5,35.5 L132.5,51.75 L132.5,35.5 L137.5,35.5 L137.5,60.5 Z" id="Herman" opacity="0.149999991"></path>
                <path d="M184,34.375 L184,27.75 L188.691065,27.75 C191.018711,27.7844917 192.246672,28.9158659 192.246672,31.2153146 C192.246672,32.2385693 191.855402,33.0020992 191.186345,33.58271 C190.517287,34.1633208 189.592894,34.5 188.400959,34.5 L187.75,34.5 L187.75,38.5 L184,38.5 L184,34.375 Z M186.5,24.0130932 L187.804529,24.0199254 C190.357068,23.9739364 191.731782,22.9199748 191.731782,20.8849627 C191.731782,19.7467356 191.310039,18.9410459 190.66347,18.4409158 C190.016902,17.9407857 189.031288,17.75 187.63695,17.75 L184,17.75 L184,24 L184,27.75 L186.5,27.75 L186.5,24.0130932 Z M241.5,17.75 L241.501388,13.5 L246.501388,13.5 L246.5,17.75 L241.5,17.75 Z M264.75,26.257385 L255.25,26.257385 L255.25,34.25 L266.5,34.25 L266.5,38.5 L250.25,38.5 L250.25,13.5 L266.5,13.5 L266.5,17.7500272 L255.25,17.7500272 L255.25,22.007385 L264.75,22.007385 L264.75,26.257385 Z M246.5,38.5 L241.5,38.5 L241.5,22 L246.5,22 L246.5,38.5 Z M227.75056,34.2664114 L237.75,34.25 L237.75,38.5 L222.75,38.5 L222.75,13.5 L227.75056,13.5 L227.75056,34.2664114 Z M179,38.5 L179,13.5 L187.602126,13.5 C190.581962,13.5 192.605097,14.1348507 194.145616,15.3018209 C195.686135,16.4687912 196.500309,18.1166741 196.500309,20.3701339 C196.500309,21.600339 196.384168,22.69487 195.765712,23.6318954 C195.147255,24.5689207 194.287051,25.2558707 193.185074,25.692766 C194.444476,26.0146888 195.436803,26.6642733 196.162084,27.641539 C196.887365,28.6188048 197.25,29.8145002 197.25,31.2286611 C197.25,33.6430823 196.496619,35.4711166 194.989834,36.712819 C193.483049,37.9545213 191.313748,38.4770055 188.525071,38.5 L179,38.5 Z M175.25,13.5 L175.240632,30.0680894 C175.240632,32.8208132 174.562969,34.9976207 172.878904,36.5985772 C171.19484,38.1995338 168.894071,39 165.976528,39 C163.104043,39 160.822987,38.2225688 159.13329,36.6676829 C157.443593,35.1127971 156.533794,33.0316863 156.5,30.3135156 L156.5,13.5 L161.5,13.5 L161.5,30.0680894 C161.5,31.7151166 162.00294,32.9503689 162.774568,33.7047764 C163.546196,34.459184 164.613506,34.7638119 165.976528,34.7638119 C168.826483,34.7638119 170.211229,33.2910699 170.256288,30.227369 L170.25,13.5 L175.25,13.5 Z M112.75,38.5 L112.75,21.9427168 C112.75,19.1759595 113.643257,17.0227836 115.335907,15.4136653 C117.028557,13.8045471 119.341056,13 122.273472,13 C125.160601,13 127.453286,13.7813946 129.151597,15.3442073 C130.849908,16.90702 131.466034,19.2106887 131.5,21.9427168 L131.5,38.5 L126.5,38.5 L126.5,21.9427168 C126.5,20.287293 126.267318,19.0804724 125.491756,18.3222188 C124.716194,17.5639653 123.643443,17.1848442 122.273472,17.1848442 C119.408988,17.1848442 117.795288,18.863397 117.75,21.9427168 L117.75,38.5 L112.75,38.5 Z M121.5,29.25 L126.5,29.25 L126.5,33.5 L121.5,33.5 L121.5,29.25 Z M200.25,38.5 L200.25,21.9427168 C200.25,19.1759595 201.143257,17.0227836 202.835907,15.4136653 C204.528557,13.8045471 206.841056,13 209.773472,13 C212.660601,13 214.953286,13.7813946 216.651597,15.3442073 C218.349908,16.90702 218.966034,19.2106887 219,21.9427168 L219,38.5 L214,38.5 L214,21.9427168 C214,20.287293 213.767318,19.0804724 212.991756,18.3222188 C212.216194,17.5639653 211.143443,17.1848442 209.773472,17.1848442 C206.908988,17.1848442 205.295288,18.863397 205.25,21.9427168 L205.25,38.5 L200.25,38.5 Z M209,29.25 L214,29.25 L214,33.5 L209,33.5 L209,29.25 Z M144.25,29.5 L140.25,29.5 L140.25,38.5 L135.25,38.5 L135.25,13.5 L144.437816,13.5 C147.358911,13.5 149.298313,14.2023647 150.883403,15.5336496 C152.468493,16.8649345 153.398637,18.767493 153.398637,21.198535 C153.398637,22.9234171 153.075461,24.2795617 152.345188,25.4314125 C151.614914,26.5832634 150.642288,27.5247233 149.159097,28.2077304 L154.5,38.5 L149,38.5 L144.25,29.5 Z M140.251219,25.2490836 L144.437816,25.2490836 C145.71721,25.2490836 146.72486,24.9750428 147.426828,24.3094004 C148.128797,23.643758 148.5,21.5868408 148.5,21.5868408 C148.5,21.5868408 148.353514,19.6275759 147.486269,18.7440786 C146.619024,17.8605813 144.5,17.75 144.5,17.75 L140.251219,17.75 L140.251219,25.2490836 Z M140.25,25.25 L142.75,25.25 L142.75,29.5 L140.25,29.5 L140.25,25.25 Z M109,38.5 L104,38.5 L94,21.8867883 L94,38.5 L89,38.5 L89,13.5 L94,13.5 L104,29.75 L104,13.5 L109,13.5 L109,38.5 Z" id="Narubalie"></path>
                <polygon id="Apostrof" points="258.808395 9.89090528 264.515467 2.73870557 260.338365 0 256.5 8.37197889"></polygon>
            </g>
        </g>
    </g>
</svg>