<?xml version="1.0" encoding="UTF-8"?>
<svg width="568px" height="108px" viewBox="0 0 568 108" version="1.1" xmlns="http://www.w3.org/2000/svg" xmlns:xlink="http://www.w3.org/1999/xlink">
    <!-- Generator: Sketch 41.2 (35397) - http://www.bohemiancoding.com/sketch -->
    <title>herman</title>
    <desc>Created with Sketch.</desc>
    <defs></defs>
    <g id="narubalie" stroke="none" stroke-width="1" fill="none" fill-rule="evenodd">
        <g id="Desktop-HD-Copy-17" transform="translate(-279.000000, -335.000000)" fill="#FFDA40">
            <g id="logo-copy-3" transform="translate(279.000000, 281.000000)">
                <g id="herman" transform="translate(0.000000, 54.685602)">
                    <polygon id="Rectangle-4" points="548.557385 2.08685705 567.418957 2.08685705 567.505337 69.1110601 548.656535 38.3871163"></polygon>
                    <polygon id="N" points="567.911227 106.42971 547.259909 106.42971 505.957275 37.0909138 505.957275 106.42971 485.305957 106.42971 485.305957 2.08685705 505.957275 2.08685705 547.259909 69.9097113 547.568343 69.9097113"></polygon>
                    <path d="M428.514835,67.8228542 L449.166152,67.8228542 L449.166152,85.5611392 L428.514835,85.5611392 L428.514835,67.8228542 Z M392.375029,106.42971 L392.375029,37.3243433 C392.375029,25.7766894 396.064416,16.7899485 403.055506,10.073949 C410.046596,3.35794941 419.597825,1.42108547e-14 431.709479,1.42108547e-14 C443.634081,1.42108547e-14 453.103476,3.26131777 460.117947,9.78405115 C467.132419,16.3067845 469.67718,25.921639 469.817469,37.3243433 L469.817469,106.42971 L449.166152,106.42971 L449.166152,37.3243433 C449.166152,30.4150775 448.205112,25.3781534 445.001837,22.2134198 C441.798561,19.0486862 437.36782,17.4663432 431.709479,17.4663432 C419.878404,17.4663432 413.213399,24.4721427 413.026347,37.3243433 L413.026347,106.42971 L392.375029,106.42971 Z" id="A"></path>
                    <polygon id="M" points="296.525676 2.08685705 323.295824 77.7640908 348.890251 2.08685705 376.880333 2.08685705 376.880333 106.42971 356.206217 106.42971 356.206217 78.376754 357.694337 28.6742185 330.596774 106.42971 315.851719 106.42971 287.793168 28.7458826 289.029588 77.9074189 289.029588 106.42971 268.467125 106.42971 268.467125 2.08685705"></polygon>
                    <path d="M217.871398,68.8662827 L201.350344,68.8662827 L201.350344,106.42971 L180.699027,106.42971 L180.699027,2.08685705 L218.647128,2.08685705 C230.712019,2.08685705 238.722259,5.01832669 245.269099,10.5747292 C251.815939,16.1311317 255.65768,24.0718669 255.65768,34.2183411 C255.65768,41.4175061 254.322879,47.0776657 251.306656,51.8851618 C248.290433,56.6926579 244.273233,60.6220426 238.147262,63.4727187 L260.206598,106.42971 L237.490149,106.42971 L217.871398,68.8662827 Z M201.350344,51.1279978 L211.676003,51.1279978 L211.676003,68.8662827 L201.350344,68.8662827 L201.350344,51.1279978 Z M201.355379,51.1241729 L218.647128,51.1241729 C223.931363,51.1241729 228.093221,49.9804053 230.992536,47.202204 C233.891851,44.4240027 235.425018,35.8390187 235.425018,35.8390187 C235.425018,35.8390187 234.819991,27.6616068 231.238042,23.9741418 C227.656092,20.2866768 218.903964,19.825142 218.903964,19.825142 L201.355379,19.825142 L201.355379,51.1241729 Z" id="R"></path>
                    <polygon id="E" points="157.982578 55.3325347 118.745075 55.3325347 118.745075 88.6914247 165.210539 88.6914247 165.210539 106.42971 98.0937573 106.42971 98.0937573 2.08685705 165.210539 2.08685705 165.210539 19.8252554 118.745075 19.8252554 118.745075 37.5942497 157.982578 37.5942497"></polygon>
                    <polygon id="H" points="82.6052693 106.42971 61.953952 106.42971 61.953952 54.2582834 20.6545253 54.2582834 20.6545253 106.42971 0 106.42971 0 2.08685705 20.6545253 2.08685705 20.6545253 37.5634269 61.953952 37.5634269 61.953952 2.08685705 82.6052693 2.08685705"></polygon>
                </g>
            </g>
        </g>
    </g>
</svg>