<?xml version="1.0" encoding="UTF-8"?>
<svg width="267px" height="61px" viewBox="0 0 267 61" version="1.1" xmlns="http://www.w3.org/2000/svg" xmlns:xlink="http://www.w3.org/1999/xlink">
    <!-- Generator: Sketch 41.2 (35397) - http://www.bohemiancoding.com/sketch -->
    <title>logo</title>
    <desc>Created with Sketch.</desc>
    <defs></defs>
    <g id="narubalie" stroke="none" stroke-width="1" fill="none" fill-rule="evenodd">
        <g id="Desktop-HD-Copy-10" transform="translate(-467.000000, -130.000000)">
            <g id="logo" transform="translate(467.000000, 130.000000)">
                <g id="herman" transform="translate(0.000000, 35.000000)" fill="#000000" opacity="0.149999991">
                    <polygon id="N" points="137.5 25.5 132.5 25.5 122.5 8.88678832 122.5 25.5 117.5 25.5 117.5 0.5 122.5 0.5 132.5 16.75 132.5 0.5 137.5 0.5"></polygon>
                    <path d="M103.75,16.25 L108.75,16.25 L108.75,20.5 L103.75,20.5 L103.75,16.25 Z M95,25.5 L95,8.9427168 C95,6.17595952 95.8932571,4.02278356 97.585907,2.41366531 C99.2785569,0.804547058 101.591056,3.55271368e-15 104.523472,3.55271368e-15 C107.410601,3.55271368e-15 109.703286,0.781394625 111.401597,2.34420732 C113.099908,3.90702001 113.716034,6.21068869 113.75,8.9427168 L113.75,25.5 L108.75,25.5 L108.75,8.9427168 C108.75,7.28729299 108.517318,6.0804724 107.741756,5.32221883 C106.966194,4.56396527 105.893443,4.18484417 104.523472,4.18484417 C101.658988,4.18484417 100.045288,5.86339698 100,8.9427168 L100,25.5 L95,25.5 Z" id="A"></path>
                    <polygon id="M" points="71.7934046 0.5 78.2748672 18.6318681 84.4716696 0.5 91.248497 0.5 91.248497 25.5 86.242977 25.5 86.242977 18.778659 86.6032736 6.87019231 80.0425388 25.5 76.4725354 25.5 69.6791307 6.88736264 69.978487 18.6662088 69.978487 25.5 65 25.5 65 0.5"></polygon>
                    <path d="M52.75,16.5 L48.75,16.5 L48.75,25.5 L43.75,25.5 L43.75,0.5 L52.9378162,0.5 C55.858911,0.5 57.7983126,1.20236474 59.3834028,2.53364963 C60.968493,3.86493452 61.8986372,5.76749301 61.8986372,8.19853498 C61.8986372,9.92341713 61.5754614,11.2795617 60.8451877,12.4314125 C60.114914,13.5832634 59.1422885,14.5247233 57.6590969,15.2077304 L63,25.5 L57.5,25.5 L52.75,16.5 Z M48.75,12.25 L51.25,12.25 L51.25,16.5 L48.75,16.5 L48.75,12.25 Z M48.751219,12.2490836 L52.9378162,12.2490836 C54.2172104,12.2490836 55.2248599,11.9750428 55.9268285,11.3094004 C56.628797,10.643758 57,8.58684082 57,8.58684082 C57,8.58684082 56.8535139,6.62757586 55.986269,5.74407859 C55.1190242,4.86058132 53,4.75 53,4.75 L48.751219,4.75 L48.751219,12.2490836 Z" id="R"></path>
                    <polygon id="E" points="38.25 13.257385 28.75 13.257385 28.75 21.25 40 21.25 40 25.5 23.75 25.5 23.75 0.5 40 0.5 40 4.75002716 28.75 4.75002716 28.75 9.00738498 38.25 9.00738498"></polygon>
                    <polygon id="H" points="20 25.5 15 25.5 15 13 5.0007767 13 5.0007767 25.5 0 25.5 0 0.5 5.0007767 0.5 5.0007767 9 15 9 15 0.5 20 0.5"></polygon>
                </g>
                <g id="narubalie" transform="translate(89.000000, 13.000000)" fill="#333333">
                    <polygon id="E" points="175.75 13.257385 166.25 13.257385 166.25 21.25 177.5 21.25 177.5 25.5 161.25 25.5 161.25 0.5 177.5 0.5 177.5 4.75002716 166.25 4.75002716 166.25 9.00738498 175.75 9.00738498"></polygon>
                    <path d="M157.5,25.5 L152.5,25.5 L152.5,9 L157.5,9 L157.5,25.5 Z M152.875694,4.37430576 L152.877083,0.12430576 L157.877083,0.12430576 L157.875694,4.37430576 L152.875694,4.37430576 Z" id="I"></path>
                    <polygon id="L" points="138.75056 21.2664114 148.75 21.25 148.75 25.5 133.75 25.5 133.75 0.5 138.75056 0.5"></polygon>
                    <path d="M120,16.25 L125,16.25 L125,20.5 L120,20.5 L120,16.25 Z M111.25,25.5 L111.25,8.9427168 C111.25,6.17595952 112.143257,4.02278356 113.835907,2.41366531 C115.528557,0.804547058 117.841056,3.55271368e-15 120.773472,3.55271368e-15 C123.660601,3.55271368e-15 125.953286,0.781394625 127.651597,2.34420732 C129.349908,3.90702001 129.966034,6.21068869 130,8.9427168 L130,25.5 L125,25.5 L125,8.9427168 C125,7.28729299 124.767318,6.0804724 123.991756,5.32221883 C123.216194,4.56396527 122.143443,4.18484417 120.773472,4.18484417 C117.908988,4.18484417 116.295288,5.86339698 116.25,8.9427168 L116.25,25.5 L111.25,25.5 Z" id="A"></path>
                    <path d="M97.5,11.0130932 L97.5,14.75 L95,14.75 L95,11 L95,4.75 L98.6369495,4.75 C100.031288,4.75 101.016902,4.94078567 101.66347,5.44091578 C102.310039,5.94104588 102.731782,6.74673557 102.731782,7.88496269 C102.731782,9.91997483 101.357068,10.9739364 98.8045287,11.0199254 L97.5,11.0130932 Z M98.75,21.5 L98.75,25.5 L95,25.5 L95,21.375 L95,14.75 L99.6910649,14.75 C102.018711,14.7844917 103.246672,15.9158659 103.246672,18.2153146 C103.246672,19.2385693 102.855402,20.0020992 102.186345,20.58271 C101.517287,21.1633208 100.592894,21.5 99.4009591,21.5 L98.75,21.5 Z M90,25.5 L90,0.5 L98.6021257,0.5 C101.581962,0.5 103.605097,1.1348507 105.145616,2.30182093 C106.686135,3.46879117 107.500309,5.11667415 107.500309,7.37013391 C107.500309,8.60033899 107.384168,9.69486999 106.765712,10.6318954 C106.147255,11.5689207 105.287051,12.2558707 104.185074,12.692766 C105.444476,13.0146888 106.436803,13.6642733 107.162084,14.641539 C107.887365,15.6188048 108.25,16.8145002 108.25,18.2286611 C108.25,20.6430823 107.496619,22.4711166 105.989834,23.712819 C104.483049,24.9545213 102.313748,25.4770055 99.5250706,25.5 L90,25.5 Z" id="B"></path>
                    <path d="M86.25,0.5 L86.2406321,17.0680894 C86.2406321,19.8208132 85.5629689,21.9976207 83.8789044,23.5985772 C82.19484,25.1995338 79.8940707,26 76.9765276,26 C74.104043,26 71.8229866,25.2225688 70.1332898,23.6676829 C68.443593,22.1127971 67.5337939,20.0316863 67.5,17.3135156 L67.5,0.5 L72.5,0.5 L72.5,17.0680894 C72.5,18.7151166 73.00294,19.9503689 73.7745682,20.7047764 C74.5461964,21.459184 75.6135055,21.7638119 76.9765276,21.7638119 C79.8264828,21.7638119 81.2112293,20.2910699 81.2562879,17.227369 L81.25,0.5 L86.25,0.5 Z" id="U"></path>
                    <path d="M55.25,16.5 L51.25,16.5 L51.25,25.5 L46.25,25.5 L46.25,0.5 L55.4378162,0.5 C58.358911,0.5 60.2983126,1.20236474 61.8834028,2.53364963 C63.468493,3.86493452 64.3986372,5.76749301 64.3986372,8.19853498 C64.3986372,9.92341713 64.0754614,11.2795617 63.3451877,12.4314125 C62.614914,13.5832634 61.6422885,14.5247233 60.1590969,15.2077304 L65.5,25.5 L60,25.5 L55.25,16.5 Z M51.25,12.25 L53.75,12.25 L53.75,16.5 L51.25,16.5 L51.25,12.25 Z M51.251219,12.2490836 L55.4378162,12.2490836 C56.7172104,12.2490836 57.7248599,11.9750428 58.4268285,11.3094004 C59.128797,10.643758 59.5,8.58684082 59.5,8.58684082 C59.5,8.58684082 59.3535139,6.62757586 58.486269,5.74407859 C57.6190242,4.86058132 55.5,4.75 55.5,4.75 L51.251219,4.75 L51.251219,12.2490836 Z" id="R"></path>
                    <path d="M32.5,16.25 L37.5,16.25 L37.5,20.5 L32.5,20.5 L32.5,16.25 Z M23.75,25.5 L23.75,8.9427168 C23.75,6.17595952 24.6432571,4.02278356 26.335907,2.41366531 C28.0285569,0.804547058 30.3410555,3.55271368e-15 33.2734724,3.55271368e-15 C36.160601,3.55271368e-15 38.4532863,0.781394625 40.1515973,2.34420732 C41.8499082,3.90702001 42.4660338,6.21068869 42.5,8.9427168 L42.5,25.5 L37.5,25.5 L37.5,8.9427168 C37.5,7.28729299 37.2673175,6.0804724 36.4917555,5.32221883 C35.7161935,4.56396527 34.6434432,4.18484417 33.2734724,4.18484417 C30.408988,4.18484417 28.7952883,5.86339698 28.75,8.9427168 L28.75,25.5 L23.75,25.5 Z" id="A"></path>
                    <polygon id="N" points="20 25.5 15 25.5 5 8.88678832 5 25.5 0 25.5 0 0.5 5 0.5 15 16.75 15 0.5 20 0.5"></polygon>
                </g>
                <polygon id="Apostrof" fill="#000000" points="258.808395 9.89090528 264.515467 2.73870557 260.338365 0 256.5 8.37197889"></polygon>
            </g>
        </g>
    </g>
</svg>