<?xml version="1.0" encoding="UTF-8"?>
<svg width="178px" height="39px" viewBox="0 0 178 39" version="1.1" xmlns="http://www.w3.org/2000/svg" xmlns:xlink="http://www.w3.org/1999/xlink">
    <!-- Generator: Sketch 41.2 (35397) - http://www.bohemiancoding.com/sketch -->
    <title>logo-sm</title>
    <desc>Created with Sketch.</desc>
    <defs></defs>
    <g id="narubalie" stroke="none" stroke-width="1" fill="none" fill-rule="evenodd">
        <g id="Desktop-HD-Copy-5" transform="translate(-511.000000, -25.000000)">
            <g id="logo-sm" transform="translate(511.000000, 25.000000)">
                <path d="M95,34.375 L95,27.75 L99.6910649,27.75 C102.018711,27.7844917 103.246672,28.9158659 103.246672,31.2153146 C103.246672,32.2385693 102.855402,33.0020992 102.186345,33.58271 C101.517287,34.1633208 100.592894,34.5 99.4009591,34.5 L98.75,34.5 L98.75,38.5 L95,38.5 L95,34.375 Z M97.5,24.0130932 L98.8045287,24.0199254 C101.357068,23.9739364 102.731782,22.9199748 102.731782,20.8849627 C102.731782,19.7467356 102.310039,18.9410459 101.66347,18.4409158 C101.016902,17.9407857 100.031288,17.75 98.6369495,17.75 L95,17.75 L95,24 L95,27.75 L97.5,27.75 L97.5,24.0130932 Z M152.5,17.75 L152.501388,13.5 L157.501388,13.5 L157.5,17.75 L152.5,17.75 Z M157.5,38.5 L152.5,38.5 L152.5,22 L157.5,22 L157.5,38.5 Z M138.75056,34.2664114 L148.75,34.25 L148.75,38.5 L133.75,38.5 L133.75,13.5 L138.75056,13.5 L138.75056,34.2664114 Z M90,38.5 L90,13.5 L98.6021257,13.5 C101.581962,13.5 103.605097,14.1348507 105.145616,15.3018209 C106.686135,16.4687912 107.500309,18.1166741 107.500309,20.3701339 C107.500309,21.600339 107.384168,22.69487 106.765712,23.6318954 C106.147255,24.5689207 105.287051,25.2558707 104.185074,25.692766 C105.444476,26.0146888 106.436803,26.6642733 107.162084,27.641539 C107.887365,28.6188048 108.25,29.8145002 108.25,31.2286611 C108.25,33.6430823 107.496619,35.4711166 105.989834,36.712819 C104.483049,37.9545213 102.313748,38.4770055 99.5250706,38.5 L90,38.5 Z M86.25,13.5 L86.2406321,30.0680894 C86.2406321,32.8208132 85.5629689,34.9976207 83.8789044,36.5985772 C82.19484,38.1995338 79.8940707,39 76.9765276,39 C74.104043,39 71.8229866,38.2225688 70.1332898,36.6676829 C68.443593,35.1127971 67.5337939,33.0316863 67.5,30.3135156 L67.5,13.5 L72.5,13.5 L72.5,30.0680894 C72.5,31.7151166 73.00294,32.9503689 73.7745682,33.7047764 C74.5461964,34.459184 75.6135055,34.7638119 76.9765276,34.7638119 C79.8264828,34.7638119 81.2112293,33.2910699 81.2562879,30.227369 L81.25,13.5 L86.25,13.5 Z M23.75,38.5 L23.75,21.9427168 C23.75,19.1759595 24.6432571,17.0227836 26.335907,15.4136653 C28.0285569,13.8045471 30.3410555,13 33.2734724,13 C36.160601,13 38.4532863,13.7813946 40.1515973,15.3442073 C41.8499082,16.90702 42.4660338,19.2106887 42.5,21.9427168 L42.5,38.5 L37.5,38.5 L37.5,21.9427168 C37.5,20.287293 37.2673175,19.0804724 36.4917555,18.3222188 C35.7161935,17.5639653 34.6434432,17.1848442 33.2734724,17.1848442 C30.408988,17.1848442 28.7952883,18.863397 28.75,21.9427168 L28.75,38.5 L23.75,38.5 Z M32.5,29.25 L37.5,29.25 L37.5,33.5 L32.5,33.5 L32.5,29.25 Z M111.25,38.5 L111.25,21.9427168 C111.25,19.1759595 112.143257,17.0227836 113.835907,15.4136653 C115.528557,13.8045471 117.841056,13 120.773472,13 C123.660601,13 125.953286,13.7813946 127.651597,15.3442073 C129.349908,16.90702 129.966034,19.2106887 130,21.9427168 L130,38.5 L125,38.5 L125,21.9427168 C125,20.287293 124.767318,19.0804724 123.991756,18.3222188 C123.216194,17.5639653 122.143443,17.1848442 120.773472,17.1848442 C117.908988,17.1848442 116.295288,18.863397 116.25,21.9427168 L116.25,38.5 L111.25,38.5 Z M120,29.25 L125,29.25 L125,33.5 L120,33.5 L120,29.25 Z M55.25,29.5 L51.25,29.5 L51.25,38.5 L46.25,38.5 L46.25,13.5 L55.4378162,13.5 C58.358911,13.5 60.2983126,14.2023647 61.8834028,15.5336496 C63.468493,16.8649345 64.3986372,18.767493 64.3986372,21.198535 C64.3986372,22.9234171 64.0754614,24.2795617 63.3451877,25.4314125 C62.614914,26.5832634 61.6422885,27.5247233 60.1590969,28.2077304 L65.5,38.5 L60,38.5 L55.25,29.5 Z M51.251219,25.2490836 L55.4378162,25.2490836 C56.7172104,25.2490836 57.7248599,24.9750428 58.4268285,24.3094004 C59.128797,23.643758 59.5,21.5868408 59.5,21.5868408 C59.5,21.5868408 59.3535139,19.6275759 58.486269,18.7440786 C57.6190242,17.8605813 55.5,17.75 55.5,17.75 L51.251219,17.75 L51.251219,25.2490836 Z M51.25,25.25 L53.75,25.25 L53.75,29.5 L51.25,29.5 L51.25,25.25 Z M20,38.5 L15,38.5 L5,21.8867883 L5,38.5 L0,38.5 L0,13.5 L5,13.5 L15,29.75 L15,13.5 L20,13.5 L20,38.5 Z" id="Narubalie" fill="#333333"></path>
                <polygon id="Path" fill="#333333" points="175.5 26.757385 166 26.757385 166 34.75 177.25 34.75 177.25 39 161 39 161 14 177.25 14 177.25 18.2500272 166 18.2500272 166 22.507385 175.5 22.507385"></polygon>
                <polygon id="Apostrof" fill="#F2B22A" points="170.308395 9.89090528 176.015467 2.73870557 171.838365 0 168 8.37197889"></polygon>
            </g>
        </g>
    </g>
</svg>