<?xml version="1.0" encoding="UTF-8"?>
<svg width="734px" height="109px" viewBox="0 0 734 109" version="1.1" xmlns="http://www.w3.org/2000/svg" xmlns:xlink="http://www.w3.org/1999/xlink">
    <!-- Generator: Sketch 41.2 (35397) - http://www.bohemiancoding.com/sketch -->
    <title>narubalie</title>
    <desc>Created with Sketch.</desc>
    <defs></defs>
    <g id="narubalie" stroke="none" stroke-width="1" fill="none" fill-rule="evenodd">
        <g id="Desktop-HD-Copy-17" transform="translate(-784.000000, -335.000000)" fill="#333333">
            <g id="logo-copy-3" transform="translate(279.000000, 281.000000)">
                <g id="narubalie" transform="translate(505.500159, 54.258283)">
                    <polygon id="E" points="725.893804 55.3325347 686.656301 55.3325347 686.656301 88.6914247 733.121765 88.6914247 733.121765 106.42971 666.004984 106.42971 666.004984 2.08685705 733.121765 2.08685705 733.121765 19.8252554 686.656301 19.8252554 686.656301 37.5942497 725.893804 37.5942497"></polygon>
                    <path d="M650.516496,106.42971 L629.865179,106.42971 L629.865179,37.5634269 L650.516496,37.5634269 L650.516496,106.42971 Z M631.308238,18.164769 L631.314033,0.611149315 L652.182604,0.611149315 L652.176808,18.164769 L631.308238,18.164769 Z" id="I"></path>
                    <polygon id="L" points="573.07637 88.7599211 614.376691 88.6914247 614.376691 106.42971 552.422739 106.42971 552.422739 2.08685705 573.07637 2.08685705"></polygon>
                    <path d="M495.631616,67.8228542 L516.282933,67.8228542 L516.282933,85.5611392 L495.631616,85.5611392 L495.631616,67.8228542 Z M459.491811,106.42971 L459.491811,37.3243433 C459.491811,25.7766894 463.181198,16.7899485 470.172288,10.073949 C477.163378,3.35794941 486.714607,0 498.826261,0 C510.750862,0 520.220257,3.26131777 527.234729,9.78405115 C534.2492,16.3067845 536.793961,25.921639 536.934251,37.3243433 L536.934251,106.42971 L516.282933,106.42971 L516.282933,37.3243433 C516.282933,30.4150775 515.321893,25.3781534 512.118618,22.2134198 C508.915343,19.0486862 504.484601,17.4663432 498.826261,17.4663432 C486.995185,17.4663432 480.33018,24.4721427 480.143128,37.3243433 L480.143128,106.42971 L459.491811,106.42971 Z" id="A"></path>
                    <path d="M402.700688,45.9655024 L402.700688,61.5622831 L392.375029,61.5622831 L392.375029,45.9108552 L392.375029,19.825142 L407.396589,19.825142 C413.155574,19.825142 417.226421,20.6214269 419.896918,22.7088269 C422.567415,24.796227 424.309327,28.1589454 424.309327,32.90958 C424.309327,41.4031389 418.631393,45.8020732 408.088735,45.994018 L402.700688,45.9655024 Z M407.863517,89.7348533 L407.863517,106.42971 L392.375029,106.42971 L392.375029,89.213139 L392.375029,61.5622831 L411.750363,61.5622831 C421.364153,61.7062417 426.435955,66.428274 426.435955,76.0255156 C426.435955,80.2962882 424.81991,83.4830436 422.056526,85.9063471 C419.293142,88.3296507 415.475153,89.7348533 410.55215,89.7348533 L407.863517,89.7348533 Z M371.723712,106.42971 L371.723712,2.08685705 L407.252757,2.08685705 C419.560266,2.08685705 427.916348,4.73654236 434.279098,9.6071425 C440.641847,14.4777426 444.004597,21.3555351 444.004597,30.7608319 C444.004597,35.8953561 443.524907,40.4636156 440.970518,44.3744916 C438.41613,48.2853676 434.863261,51.1525005 430.311805,52.9759764 C435.513469,54.3195902 439.61204,57.0307703 442.607641,61.109598 C445.603242,65.1884257 447.10102,70.1789165 447.10102,76.0812201 C447.10102,86.1583239 443.989357,93.7880165 437.765938,98.970527 C431.542518,104.153037 422.582733,106.333737 411.064763,106.42971 L371.723712,106.42971 Z" id="B"></path>
                    <path d="M356.235224,2.08685705 L356.196532,71.2373256 C356.196532,82.7264077 353.397604,91.8117799 346.441975,98.4937147 C339.486345,105.175649 329.983561,108.516567 317.93334,108.516567 C306.069222,108.516567 296.647858,105.271791 289.668965,98.7821421 C282.690072,92.2924932 278.932362,83.6065318 278.792784,72.2616641 L278.792784,2.08685705 L299.444101,2.08685705 L299.444101,71.2373256 C299.444101,78.1115463 301.521376,83.2671359 304.708404,86.4158174 C307.895431,89.5644989 312.303699,90.8359285 317.93334,90.8359285 C329.704406,90.8359285 335.423774,84.6891247 335.609877,71.9021128 L335.583907,2.08685705 L356.235224,2.08685705 Z" id="U"></path>
                    <path d="M228.197056,68.8662827 L211.676003,68.8662827 L211.676003,106.42971 L191.024685,106.42971 L191.024685,2.08685705 L228.972787,2.08685705 C241.037678,2.08685705 249.047918,5.01832669 255.594758,10.5747292 C262.141598,16.1311317 265.983338,24.0718669 265.983338,34.2183411 C265.983338,41.4175061 264.648537,47.0776657 261.632314,51.8851618 C258.616092,56.6926579 254.598892,60.6220426 248.47292,63.4727187 L270.532257,106.42971 L247.815808,106.42971 L228.197056,68.8662827 Z M211.676003,51.1279978 L222.001661,51.1279978 L222.001661,68.8662827 L211.676003,68.8662827 L211.676003,51.1279978 Z M211.681037,51.1241729 L228.972787,51.1241729 C234.257022,51.1241729 238.41888,49.9804053 241.318195,47.202204 C244.21751,44.4240027 245.750676,35.8390187 245.750676,35.8390187 C245.750676,35.8390187 245.14565,27.6616068 241.5637,23.9741418 C237.98175,20.2866768 229.229622,19.825142 229.229622,19.825142 L211.681037,19.825142 L211.681037,51.1241729 Z" id="R"></path>
                    <path d="M134.233563,67.8228542 L154.88488,67.8228542 L154.88488,85.5611392 L134.233563,85.5611392 L134.233563,67.8228542 Z M98.0937573,106.42971 L98.0937573,37.3243433 C98.0937573,25.7766894 101.783144,16.7899485 108.774234,10.073949 C115.765324,3.35794941 125.316553,-4.26325641e-14 137.428207,-4.26325641e-14 C149.352809,-4.26325641e-14 158.822204,3.26131777 165.836675,9.78405115 C172.851147,16.3067845 175.395908,25.921639 175.536197,37.3243433 L175.536197,106.42971 L154.88488,106.42971 L154.88488,37.3243433 C154.88488,30.4150775 153.92384,25.3781534 150.720565,22.2134198 C147.517289,19.0486862 143.086548,17.4663432 137.428207,17.4663432 C125.597132,17.4663432 118.932127,24.4721427 118.745075,37.3243433 L118.745075,106.42971 L98.0937573,106.42971 Z" id="A"></path>
                    <polygon id="N" points="82.6052693 106.42971 61.953952 106.42971 20.6513173 37.0909138 20.6513173 106.42971 0 106.42971 0 2.08685705 20.6513173 2.08685705 61.953952 69.9097113 61.953952 2.08685705 82.6052693 2.08685705"></polygon>
                </g>
            </g>
        </g>
    </g>
</svg>